# xmcd
#
# Track frame offsets:
#	150
#	15784
#	30625
#	44758
#	63449
#	79244
#	103249
#	120079
#	138195
#	156099
#	177878
#	191182
#	211358
#	229264
#	246319
#	262817
#
# Disc length: 3727 seconds
#
# Revision: 1
# Processed by: cddbd v1.5.2PL0 Copyright (c) Steve Scherf et al.
# Submitted via: audiograbber 1.83.01
#
DISCID=d40e8d10
DTITLE=Various Artist - Award Winning Country - The 90`s - Disc 2
DYEAR=1900
DGENRE=
TTITLE0=Brooks and Dunn - My Maria
TTITLE1=Adam Brand - Last Man Standing
TTITLE2=Terri Clark - Better Things To Do
TTITLE3=Jessica Andrews - Unbreakable Heart
TTITLE4=John Williamson - Tropical Feaver
TTITLE5=The Judds - Love Can Build A Bridge
TTITLE6=Michelle Wright - The Change
TTITLE7=Sherrie Austin - One Solitary Tear
TTITLE8=Shelby Lynne - Things Are Tough All Over
TTITLE9=Deana Carter - Strwberry Wine
TTITLE10=Chely Wright - Till I Was Loved By You
TTITLE11=Graeme Connors - The Road Less Travelled
TTITLE12=Vince Gill - I Still Believe In You
TTITLE13=Aaron Neville and Trisha Yearwood - I Fall To Pieces
TTITLE14=Paul Brandt - I Do
TTITLE15=James Blundell - Kimberley Moon
EXTD=
EXTT0=
EXTT1=
EXTT2=
EXTT3=
EXTT4=
EXTT5=
EXTT6=
EXTT7=
EXTT8=
EXTT9=
EXTT10=
EXTT11=
EXTT12=
EXTT13=
EXTT14=
EXTT15=
PLAYORDER=
